<svg width="29" height="33" viewBox="0 0 29 33" fill="none" xmlns="http://www.w3.org/2000/svg">
<path fill-rule="evenodd" clip-rule="evenodd" d="M16.7115 18.7256H26.602C27.238 18.7256 27.8479 18.9802 28.2976 19.4333C28.7474 19.8864 29 20.501 29 21.1418V30.5784C29 31.2192 28.7474 31.8338 28.2976 32.2869C27.8479 32.7401 27.238 32.9946 26.602 32.9946H16.7115C16.0755 32.9946 15.4656 32.7401 15.0159 32.2869C14.5661 31.8338 14.3135 31.2192 14.3135 30.5784V21.1338C14.3135 20.4929 14.5661 19.8784 15.0159 19.4252C15.4656 18.9721 16.0755 18.7176 16.7115 18.7176V18.7256ZM15.2807 2.96927L20.3139 7.70234H15.2807V2.96927ZM5.32893 17.9578C5.25777 17.9598 5.18774 17.9762 5.12297 18.006C5.05819 18.0357 5 18.0783 4.95182 18.1311C4.90363 18.1839 4.86644 18.2459 4.84243 18.3134C4.81842 18.3809 4.80808 18.4526 4.81203 18.5243C4.80659 18.5967 4.81582 18.6696 4.83915 18.7384C4.86248 18.8072 4.89943 18.8705 4.94776 18.9244C4.9961 18.9784 5.0548 19.0219 5.12032 19.0523C5.18584 19.0828 5.25681 19.0995 5.32893 19.1015H11.6437V17.9578H5.32893ZM5.32893 22.0546C5.25775 22.0573 5.18783 22.0744 5.12331 22.1048C5.05879 22.1352 5.00097 22.1783 4.95328 22.2316C4.90558 22.285 4.86898 22.3474 4.84564 22.4152C4.82229 22.483 4.81267 22.5548 4.81735 22.6264C4.81267 22.698 4.82229 22.7699 4.84564 22.8377C4.86898 22.9055 4.90558 22.9679 4.95328 23.0212C5.00097 23.0745 5.05879 23.1177 5.12331 23.1481C5.18783 23.1785 5.25775 23.1956 5.32893 23.1983H11.6437V22.0546H5.32893ZM5.32893 9.76149C5.25594 9.76133 5.18369 9.77629 5.11667 9.80543C5.04965 9.83456 4.98929 9.87727 4.93932 9.93088C4.88936 9.9845 4.85086 10.0479 4.82621 10.1171C4.80156 10.1863 4.79129 10.2599 4.79604 10.3333C4.79129 10.4067 4.80156 10.4803 4.82621 10.5495C4.85086 10.6188 4.88936 10.6821 4.93932 10.7358C4.98929 10.7894 5.04965 10.8321 5.11667 10.8612C5.18369 10.8904 5.25594 10.9053 5.32893 10.9052H11.1614C11.2324 10.9021 11.302 10.8848 11.3662 10.8542C11.4304 10.8236 11.4879 10.7805 11.5354 10.7272C11.5828 10.6739 11.6191 10.6116 11.6423 10.544C11.6655 10.4763 11.675 10.4047 11.6703 10.3333C11.675 10.2619 11.6655 10.1903 11.6423 10.1227C11.6191 10.055 11.5828 9.99274 11.5354 9.93946C11.4879 9.88619 11.4304 9.843 11.3662 9.81244C11.302 9.78187 11.2324 9.76455 11.1614 9.76149H5.32893ZM5.32893 5.66468C5.25775 5.66739 5.18783 5.68446 5.12331 5.71487C5.05879 5.74528 5.00097 5.78842 4.95328 5.84173C4.90558 5.89504 4.86898 5.95744 4.84564 6.02525C4.82229 6.09306 4.81267 6.1649 4.81735 6.23651C4.81267 6.30813 4.82229 6.37997 4.84564 6.44778C4.86898 6.51558 4.90558 6.57799 4.95328 6.6313C5.00097 6.68461 5.05879 6.72774 5.12331 6.75815C5.18783 6.78856 5.25775 6.80563 5.32893 6.80835H8.52628C8.59724 6.80528 8.66687 6.78796 8.73108 6.7574C8.79529 6.72683 8.85279 6.68364 8.90021 6.63037C8.94762 6.5771 8.98398 6.51481 9.00717 6.44717C9.03035 6.37954 9.03988 6.30791 9.0352 6.23651C9.03988 6.16511 9.03035 6.09349 9.00717 6.02585C8.98398 5.95822 8.94762 5.89593 8.90021 5.84266C8.85279 5.78938 8.79529 5.74619 8.73108 5.71563C8.66687 5.68507 8.59724 5.66774 8.52628 5.66468H5.32893ZM5.32893 13.861C5.25594 13.8608 5.18369 13.8758 5.11667 13.9049C5.04965 13.9341 4.98929 13.9768 4.93932 14.0304C4.88936 14.084 4.85086 14.1474 4.82621 14.2166C4.80156 14.2858 4.79129 14.3594 4.79604 14.4328C4.79129 14.5062 4.80156 14.5798 4.82621 14.649C4.85086 14.7183 4.88936 14.7816 4.93932 14.8353C4.98929 14.8889 5.04965 14.9316 5.11667 14.9607C5.18369 14.9898 5.25594 15.0048 5.32893 15.0046H15.1874C15.2599 15.0029 15.3312 14.9867 15.3974 14.9569C15.4635 14.9271 15.5231 14.8844 15.5727 14.8312C15.6223 14.778 15.6609 14.7153 15.6863 14.6469C15.7116 14.5785 15.7232 14.5058 15.7203 14.4328C15.7251 14.3594 15.7148 14.2858 15.6902 14.2166C15.6655 14.1474 15.627 14.084 15.577 14.0304C15.5271 13.9768 15.4667 13.9341 15.3997 13.9049C15.3327 13.8758 15.2604 13.8608 15.1874 13.861H5.32893ZM23.1275 8.38157C23.1258 8.19893 23.0654 8.02178 22.9554 7.8766C22.8454 7.73142 22.6918 7.62602 22.5174 7.57616L15.1022 0.327551C15.0251 0.225385 14.9255 0.142632 14.8113 0.0857985C14.6971 0.0289655 14.5714 -0.000396668 14.4441 2.15116e-05H1.50809C1.30998 -0.00104346 1.11362 0.0374441 0.930344 0.113262C0.747071 0.18908 0.58052 0.300726 0.440305 0.441755C0.30009 0.582783 0.18899 0.750401 0.113419 0.934929C0.0378479 1.11946 -0.000697073 1.31724 9.5421e-06 1.51686V27.4991C-0.000621284 27.6985 0.0378987 27.896 0.113351 28.0803C0.188803 28.2646 0.299697 28.432 0.439646 28.573C0.723475 28.8558 1.10625 29.0149 1.50543 29.016H2.78704V31.1422C2.79257 31.6332 2.98861 32.1025 3.3332 32.4497C3.67778 32.7969 4.14355 32.9944 4.63084 33H11.6544V31.4107H4.62285C4.55333 31.4111 4.48639 31.3841 4.43634 31.3355C4.38809 31.2851 4.36131 31.2176 4.36173 31.1476V29.0294H11.6597V27.3353H1.68395V1.68868H13.5888V8.54533C13.5888 8.658 13.6109 8.76955 13.6541 8.87351C13.6972 8.97747 13.7603 9.07177 13.8399 9.15094C13.9195 9.2301 14.0138 9.29257 14.1176 9.3347C14.2213 9.37683 14.3322 9.39779 14.4441 9.39637H21.4329V16.1617H23.1142V11.3938H25.1952C25.2656 11.3926 25.3336 11.4197 25.3843 11.4689C25.4326 11.5194 25.4594 11.5868 25.4589 11.6569V16.1644H27.0576V11.6569C27.0589 11.1663 26.8673 10.6953 26.5247 10.3467C26.3542 10.1748 26.1514 10.0387 25.9282 9.94651C25.7049 9.85433 25.4657 9.80786 25.2245 9.80981H23.1142V8.38157H23.1275ZM21.1745 21.4398C21.6814 21.4399 22.1833 21.5408 22.6514 21.7366C23.1196 21.9323 23.5449 22.2192 23.9029 22.5808C24.2642 22.9402 24.5513 23.3682 24.7475 23.8401C24.9437 24.3119 25.0451 24.8183 25.0459 25.3299C25.0461 25.7062 24.9923 26.0806 24.8861 26.4413C24.7929 26.7311 24.6678 27.0093 24.513 27.2709L25.9199 28.8173C25.9699 28.8722 25.9963 28.9448 25.9933 29.0193C25.9903 29.0937 25.9581 29.164 25.9039 29.2146L24.8381 30.1999C24.8119 30.2264 24.7804 30.2471 24.7457 30.2607C24.7111 30.2742 24.674 30.2803 24.6368 30.2785C24.5997 30.2768 24.5633 30.2672 24.5301 30.2504C24.4968 30.2336 24.4674 30.21 24.4438 30.1811L23.1115 28.6992C22.8588 28.8471 22.5908 28.9669 22.3122 29.0562V29.0562C21.9524 29.1641 21.5791 29.2192 21.2038 29.22C20.4385 29.2245 19.6891 28.9998 19.0507 28.5746C18.4123 28.1493 17.9136 27.5426 17.6179 26.8314C17.3222 26.1202 17.2428 25.3365 17.3898 24.5797C17.5368 23.823 17.9035 23.1273 18.4434 22.5808C18.8014 22.2184 19.227 21.9311 19.6957 21.7352C20.1645 21.5394 20.6671 21.439 21.1745 21.4398V21.4398ZM22.8797 23.6251C22.6562 23.396 22.39 23.2135 22.0964 23.0882H22.0831C21.6436 22.9068 21.1605 22.8611 20.6952 22.9567C20.2299 23.0522 19.8032 23.2849 19.4692 23.6251C19.2447 23.8503 19.0667 24.1181 18.9456 24.413C18.8244 24.7079 18.7624 25.0241 18.7631 25.3433C18.7599 25.6626 18.8206 25.9793 18.9414 26.2745C19.0623 26.5697 19.2409 26.8374 19.4666 27.0615C19.6959 27.2911 19.9674 27.4735 20.2659 27.5984C20.8567 27.8419 21.5189 27.8419 22.1097 27.5984C22.7003 27.3502 23.1694 26.8766 23.4145 26.281C23.6596 25.6854 23.6609 25.0163 23.418 24.4198V24.4198C23.2932 24.1212 23.1102 23.851 22.8797 23.6251Z" fill="#3ba03e"/>
</svg>
