<?xml version="1.0" encoding="UTF-8"?>
<svg xmlns="http://www.w3.org/2000/svg" xmlns:xlink="http://www.w3.org/1999/xlink" width="21px" height="px" viewBox="0 0 21 20" version="1.1">
<g id="surface1">
<path style=" stroke:none;fill-rule:nonzero;fill:rgb(23.137255%,62.745098%,24.313725%);fill-opacity:1;" d="M 20.046875 12.121094 L 19.726562 12.121094 L 19.726562 10.605469 C 19.726562 8.769531 18.15625 7.273438 16.226562 7.273438 C 14.296875 7.273438 12.726562 8.769531 12.726562 10.605469 L 12.726562 11.699219 C 11.351562 10.257812 9.398438 9.425781 7.316406 9.425781 C 3.28125 9.425781 0 12.550781 0 16.394531 C 0 16.894531 0.425781 17.304688 0.953125 17.304688 L 11.453125 17.304688 L 11.453125 19.089844 C 11.453125 19.59375 11.882812 20 12.410156 20 L 20.046875 20 C 20.574219 20 21 19.59375 21 19.089844 L 21 13.03125 C 21 12.527344 20.574219 12.121094 20.046875 12.121094 Z M 14.636719 10.605469 C 14.636719 9.769531 15.351562 9.089844 16.226562 9.089844 C 17.105469 9.089844 17.816406 9.769531 17.816406 10.605469 L 17.816406 12.121094 L 14.636719 12.121094 Z M 1.992188 15.484375 C 2.445312 13.078125 4.660156 11.242188 7.316406 11.242188 C 8.925781 11.242188 10.429688 11.917969 11.453125 13.074219 L 11.453125 15.484375 Z M 19.089844 18.183594 L 13.363281 18.183594 L 13.363281 13.9375 L 19.089844 13.9375 Z M 19.089844 18.183594 "/>
<path style=" stroke:none;fill-rule:nonzero;fill:rgb(23.137255%,62.745098%,24.313725%);fill-opacity:1;" d="M 7.316406 7.605469 C 9.519531 7.605469 11.3125 5.898438 11.3125 3.804688 C 11.3125 1.707031 9.519531 0 7.316406 0 C 5.117188 0 3.324219 1.707031 3.324219 3.804688 C 3.324219 5.898438 5.117188 7.605469 7.316406 7.605469 Z M 7.316406 1.816406 C 8.46875 1.816406 9.402344 2.707031 9.402344 3.804688 C 9.402344 4.898438 8.46875 5.789062 7.316406 5.789062 C 6.167969 5.789062 5.234375 4.898438 5.234375 3.804688 C 5.234375 2.707031 6.167969 1.816406 7.316406 1.816406 Z M 7.316406 1.816406 "/>
</g>
</svg>
