<svg width="42" height="27" viewBox="0 0 42 27" fill="none" xmlns="http://www.w3.org/2000/svg">
<path fill-rule="evenodd" clip-rule="evenodd" d="M3.84802 20.0179H9.65762V21.433H3.84802V20.0179ZM29.6153 15.5311C30.1394 15.5319 30.656 15.6573 31.1233 15.8971C31.5905 16.137 31.9953 16.4845 32.3048 16.9117C32.7272 16.3384 33.3177 15.9141 33.9925 15.699C34.6673 15.484 35.3921 15.4892 36.0638 15.7139C36.7355 15.9386 37.32 16.3714 37.7343 16.9507C38.1486 17.53 38.3715 18.2265 38.3715 18.9411C38.3715 19.6557 38.1486 20.3521 37.7343 20.9315C37.32 21.5108 36.7355 21.9436 36.0638 22.1683C35.3921 22.3929 34.6673 22.3981 33.9925 22.1831C33.3177 21.9681 32.7272 21.5438 32.3048 20.9705C31.9602 21.4325 31.5045 21.798 30.9808 22.0323C30.4571 22.2666 29.8829 22.362 29.3125 22.3093C28.7421 22.2566 28.1945 22.0577 27.7216 21.7313C27.2487 21.405 26.8661 20.962 26.6102 20.4445C26.3544 19.927 26.2336 19.3521 26.2594 18.7742C26.2852 18.1963 26.4568 17.6347 26.7578 17.1426C27.0588 16.6504 27.4792 16.2441 27.9793 15.9621C28.4794 15.6801 29.0425 15.5317 29.6153 15.5311ZM39.6898 25.6402C39.9452 25.6351 40.1891 25.5321 40.3719 25.3519C40.5548 25.1718 40.6628 24.9281 40.674 24.6703V11.7347H1.33964V24.6703C1.33548 24.7988 1.3583 24.9268 1.4066 25.0458C1.4549 25.1647 1.52758 25.272 1.61987 25.3606C1.80081 25.5451 2.04626 25.6504 2.30335 25.654L39.6898 25.6402ZM2.31019 26.9896C2.00688 26.9919 1.70629 26.9319 1.42666 26.8132C1.14703 26.6945 0.894189 26.5197 0.683499 26.2994C0.466199 26.0866 0.293659 25.8318 0.176215 25.5501C0.0587715 25.2684 -0.00115809 24.9656 1.69501e-05 24.66V2.32625C-0.000891141 2.01993 0.0582934 1.71646 0.174153 1.43337C0.290013 1.15028 0.460253 0.893165 0.675044 0.676883C0.889834 0.460601 1.14492 0.289432 1.42557 0.173261C1.70622 0.0570894 2.00688 -0.00178357 2.31019 4.11534e-05H39.6898C40.3013 3.84504e-05 40.8879 0.2449 41.321 0.680953C41.754 1.11701 41.9982 1.70867 42 2.32625V24.6703C41.9992 24.9757 41.9384 25.2779 41.8211 25.5593C41.7038 25.8407 41.5323 26.0958 41.3165 26.3097C40.8842 26.7474 40.2985 26.9954 39.6864 27C27.2151 27 14.7553 27 2.30677 27L2.31019 26.9896ZM1.33964 5.02522H40.674V2.3228C40.6737 2.19335 40.6472 2.06534 40.596 1.94663C40.5449 1.82792 40.4703 1.72103 40.3767 1.63253C40.2884 1.539 40.1824 1.46426 40.065 1.4127C39.9476 1.36113 39.8212 1.33378 39.6932 1.33226H2.31019C2.18217 1.33359 2.05571 1.36085 1.93831 1.41243C1.82091 1.464 1.71495 1.53885 1.6267 1.63253C1.53641 1.72263 1.46505 1.8302 1.4169 1.94881C1.36875 2.06742 1.34479 2.19462 1.34648 2.3228V5.02522H1.33964ZM12.3403 20.0179H22.0081V21.433H12.3403V20.0179Z" fill="#3ba03e"/>
</svg>
