<svg width="45" height="34" viewBox="0 0 45 34" fill="none" xmlns="http://www.w3.org/2000/svg">
<path d="M38.0277 21.4065C38.2049 21.4066 38.3782 21.4592 38.526 21.5578C38.6739 21.6563 38.7898 21.7965 38.8594 21.9609L44.8932 32.6582C45.0581 32.9798 44.9848 33.6267 44.9775 34H0V33.0759C0.00204201 32.9099 0.0489066 32.7476 0.135552 32.6065L6.25369 21.887C6.32985 21.7408 6.44418 21.6184 6.5843 21.5331C6.72442 21.4477 6.88501 21.4027 7.04869 21.4028H18.2995L15.8119 17.0743C15.667 16.8949 15.536 16.7046 15.4199 16.5051L15.0316 15.8213C14.9977 15.8557 14.9595 15.8855 14.918 15.91L14.2732 16.2796L14.1596 16.3314C13.8001 16.499 13.396 16.5428 13.0094 16.456C12.6228 16.3692 12.2752 16.1565 12.0201 15.8508C11.9739 15.9149 11.9153 15.969 11.8479 16.0098L11.2032 16.3794C11.167 16.3992 11.1289 16.4153 11.0896 16.4275C10.7027 16.6062 10.2662 16.6434 9.85509 16.5328C9.44396 16.4222 9.08382 16.1706 8.8365 15.8213C8.81905 15.8486 8.79811 15.8734 8.77422 15.8952L8.12943 16.2648L8.01586 16.3166C6.08883 17.0558 5.08502 15.2816 4.29369 13.84L4.07754 13.4704L3.10303 11.8292L3.07372 11.7774C2.33369 10.3506 2.36299 9.10496 2.39597 7.68555C2.39597 7.44529 2.39597 7.20502 2.39597 6.86865C2.39597 6.86865 2.39597 6.86865 2.39597 6.84648C2.37933 6.15697 2.51577 5.47245 2.79529 4.84304C3.05391 4.28184 3.47893 3.81556 4.0116 3.50865L9.57288 0.259546C9.82795 0.0984854 10.121 0.00910821 10.4218 0.000659999C10.7226 -0.00778821 11.0202 0.0649993 11.2838 0.211493C11.8546 0.532155 12.3457 0.979611 12.7199 1.52001L19.0615 4.50298H19.0871C19.1677 4.53994 19.2557 4.5769 19.3509 4.62496L22.2231 2.9579L32.7815 21.4065H38.0277ZM18.6658 18.0539L21.963 23.872C22.1737 23.7487 22.4063 23.6687 22.6477 23.6364C22.889 23.6041 23.1343 23.6201 23.3695 23.6837C23.6047 23.7472 23.8251 23.8569 24.0182 24.0066C24.2112 24.1562 24.3731 24.3429 24.4945 24.5558L28.7919 22.0533C28.5472 21.6237 28.4812 21.1137 28.6082 20.6351C28.7352 20.1564 29.045 19.748 29.4697 19.4991L22.5858 7.44529C22.1594 7.69231 21.6535 7.75905 21.1785 7.63092C20.7034 7.5028 20.298 7.19022 20.0506 6.76146L16.7534 8.68727L16.8853 8.91275L19.5597 13.6034C19.846 13.2602 20.1894 12.9701 20.5745 12.7459C21.2068 12.3769 21.9333 12.2054 22.6622 12.253C23.3911 12.3006 24.0897 12.5653 24.6695 13.0135C25.2493 13.4617 25.6843 14.0734 25.9196 14.7711C26.1548 15.4687 26.1798 16.2212 25.9912 16.9331C25.8026 17.6451 25.409 18.2847 24.8601 18.7709C24.3112 19.2572 23.6318 19.5683 22.9077 19.6649C22.1836 19.7616 21.4473 19.6393 20.792 19.3138C20.1367 18.9882 19.5919 18.4738 19.2263 17.8358L19.2007 17.7914L19.0981 17.8506C18.9557 17.9348 18.8046 18.0029 18.6475 18.0539H18.6658ZM15.6544 6.78364L17.9331 5.44925L12.0458 2.9579C11.965 2.91997 11.8956 2.86134 11.8443 2.78786C11.5517 2.34185 11.1683 1.96382 10.7196 1.67895C10.6144 1.61544 10.4941 1.5819 10.3715 1.5819C10.249 1.5819 10.1287 1.61544 10.0235 1.67895L4.68203 4.80608C4.34205 5.00699 4.07203 5.30913 3.90902 5.67103C3.71485 6.07763 3.77346 6.50271 3.77346 7.12001C3.77507 7.13104 3.77507 7.14224 3.77346 7.15327C3.77346 7.38614 3.77346 7.68925 3.77346 7.98126C3.74416 9.24911 3.58296 9.9773 4.19477 11.1749L5.1473 12.7607C5.16603 12.7798 5.18095 12.8024 5.19126 12.8272C5.19126 12.8494 5.29018 13.0009 5.40375 13.1968C6.00091 14.2651 6.73362 15.5884 7.79239 15.1892L8.26499 14.912C8.10013 14.6088 7.94259 14.2947 7.79239 13.9916C7.64218 13.6885 7.53227 13.4556 7.39306 13.2153C7.3577 13.1539 7.33467 13.0861 7.32529 13.0157C7.31591 12.9453 7.32036 12.8738 7.33839 12.8051C7.35642 12.7365 7.38768 12.6721 7.43037 12.6156C7.47307 12.5591 7.52637 12.5117 7.58723 12.476C7.64809 12.4404 7.71532 12.4171 7.78508 12.4077C7.85484 12.3982 7.92576 12.4027 7.9938 12.4209C8.06184 12.4391 8.12566 12.4706 8.18162 12.5137C8.23758 12.5568 8.28458 12.6105 8.31994 12.672C8.45915 12.9159 8.6057 13.2079 8.7559 13.511C9.2688 14.5497 9.85497 15.7288 10.7232 15.4184L11.3387 15.0487C11.3744 15.0305 11.4111 15.0144 11.4486 15.0007C11.2361 14.631 11.042 14.2614 10.8588 13.8918C10.7232 13.6182 10.5987 13.3595 10.4595 13.1155C10.4151 13.0548 10.3839 12.9853 10.3677 12.9117C10.3516 12.838 10.351 12.7618 10.3659 12.6878C10.3808 12.6139 10.4109 12.5439 10.4542 12.4825C10.4976 12.421 10.5532 12.3694 10.6176 12.331C10.6819 12.2925 10.7535 12.2681 10.8278 12.2593C10.902 12.2506 10.9773 12.2576 11.0487 12.28C11.1201 12.3023 11.1861 12.3396 11.2423 12.3893C11.2986 12.439 11.3439 12.5 11.3753 12.5685C11.5146 12.8087 11.6574 13.1044 11.8113 13.4075C12.3205 14.4425 12.9104 15.6254 13.775 15.3149L14.3941 14.9452C14.4349 14.9199 14.4794 14.9012 14.526 14.8898L13.4819 13.0859C13.4105 12.9619 13.3908 12.8144 13.4272 12.6757C13.4636 12.5371 13.5531 12.4187 13.6761 12.3467C13.799 12.2746 13.9452 12.2548 14.0826 12.2915C14.22 12.3283 14.3374 12.4186 14.4088 12.5426L16.3688 15.9654C16.8377 16.786 17.4678 17.115 18.0174 17.0743C18.2123 17.0643 18.402 17.0073 18.5706 16.908C18.6562 16.8597 18.7351 16.8 18.805 16.7306C18.805 16.6862 18.8453 16.664 18.893 16.6382C18.9299 16.5983 18.963 16.555 18.9919 16.5088C19.1405 16.2432 19.2186 15.9433 19.2186 15.6383C19.2186 15.3333 19.1405 15.0334 18.9919 14.7678V14.7382C18.9552 14.6606 18.9113 14.5793 18.8673 14.498L14.7641 7.39354C14.6969 7.27451 14.6767 7.13423 14.7075 7.0008C14.7384 6.86737 14.8181 6.75064 14.9307 6.67399C15.0433 6.59734 15.1804 6.56643 15.3146 6.58744C15.4488 6.60846 15.5701 6.67986 15.6544 6.78733V6.78364ZM19.3179 23.2288H7.57257L2.37765 32.1592H42.6182L37.4892 23.214H31.1842L25.1833 26.7255H30.7226C30.846 26.7176 30.9698 26.7353 31.0861 26.7775C31.2025 26.8197 31.3091 26.8855 31.3993 26.9709C31.4895 27.0563 31.5614 27.1594 31.6105 27.2739C31.6597 27.3884 31.685 27.5119 31.685 27.6367C31.685 27.7615 31.6597 27.885 31.6105 27.9995C31.5614 28.114 31.4895 28.2171 31.3993 28.3025C31.3091 28.3879 31.2025 28.4537 31.0861 28.4959C30.9698 28.5381 30.846 28.5558 30.7226 28.5479H15.5774C15.4545 28.5558 15.3313 28.5382 15.2153 28.4962C15.0994 28.4541 14.9932 28.3886 14.9034 28.3035C14.8135 28.2185 14.7419 28.1158 14.693 28.0017C14.644 27.8877 14.6188 27.7647 14.6188 27.6404C14.6188 27.5161 14.644 27.3931 14.693 27.2791C14.7419 27.165 14.8135 27.0623 14.9034 26.9773C14.9932 26.8922 15.0994 26.8267 15.2153 26.7846C15.3313 26.7426 15.4545 26.725 15.5774 26.7329H21.3366L19.3326 23.2362L19.3179 23.2288Z" fill="#3ba03e"/>
</svg>
