<?xml version="1.0" encoding="UTF-8"?>
<svg xmlns="http://www.w3.org/2000/svg" xmlns:xlink="http://www.w3.org/1999/xlink" width="62px" height="34px" viewBox="0 0 62 34" version="1.1">
<g id="surface1">
<path style=" stroke:none;fill-rule:evenodd;fill:rgb(23.137255%,62.745098%,24.313725%);fill-opacity:1;" d="M 29.472656 30.832031 C 26.089844 30.558594 22.90625 29.128906 20.46875 26.78125 C 18.03125 24.433594 16.492188 21.320312 16.109375 17.96875 C 15.34375 18.21875 14.566406 18.515625 13.78125 18.84375 L 15.050781 25.097656 L 0 15.042969 L 9.949219 0 L 11.246094 6.375 C 14.074219 5.902344 16.96875 5.980469 19.769531 6.605469 C 22.121094 3.992188 25.347656 2.316406 28.851562 1.886719 C 29.449219 1.808594 30.054688 1.769531 30.65625 1.773438 C 31.886719 1.792969 33.113281 1.945312 34.308594 2.230469 C 37.445312 3.03125 40.222656 4.839844 42.214844 7.371094 C 44.203125 9.90625 45.292969 13.027344 45.308594 16.242188 C 46.300781 15.941406 47.277344 15.582031 48.230469 15.175781 L 46.949219 8.925781 L 62 18.957031 L 52.050781 34 L 50.753906 27.621094 C 47.375 28.207031 43.90625 27.988281 40.632812 26.980469 C 38.855469 28.625 36.695312 29.804688 34.34375 30.414062 C 32.753906 30.808594 31.109375 30.949219 29.472656 30.832031 Z M 32.074219 19.609375 C 32.082031 19.332031 32.03125 19.058594 31.921875 18.804688 C 31.816406 18.585938 31.652344 18.398438 31.449219 18.265625 C 31.175781 18.082031 30.886719 17.933594 30.582031 17.8125 C 29.808594 17.484375 29.050781 17.117188 28.316406 16.714844 C 27.710938 16.378906 27.191406 15.910156 26.800781 15.339844 C 26.398438 14.695312 26.203125 13.945312 26.238281 13.1875 C 26.222656 12.453125 26.429688 11.726562 26.835938 11.113281 C 27.25 10.511719 27.820312 10.035156 28.488281 9.738281 C 29.050781 9.488281 29.65625 9.335938 30.273438 9.289062 L 30.273438 7.734375 L 31.871094 7.734375 L 31.871094 9.328125 C 32.398438 9.402344 32.910156 9.558594 33.386719 9.796875 C 34.078125 10.144531 34.65625 10.683594 35.046875 11.347656 C 35.460938 12.085938 35.671875 12.925781 35.648438 13.769531 L 32.160156 13.769531 C 32.222656 13.265625 32.089844 12.753906 31.785156 12.339844 C 31.667969 12.214844 31.523438 12.117188 31.363281 12.046875 C 31.203125 11.980469 31.03125 11.949219 30.859375 11.949219 C 30.621094 11.941406 30.386719 12 30.1875 12.125 C 30.015625 12.242188 29.882812 12.40625 29.808594 12.597656 C 29.726562 12.796875 29.683594 13.011719 29.6875 13.230469 C 29.683594 13.453125 29.730469 13.679688 29.828125 13.878906 C 29.941406 14.082031 30.101562 14.253906 30.292969 14.382812 C 30.578125 14.578125 30.882812 14.746094 31.203125 14.882812 C 31.960938 15.226562 32.695312 15.617188 33.40625 16.046875 C 34.023438 16.390625 34.554688 16.871094 34.960938 17.453125 C 35.363281 18.09375 35.5625 18.839844 35.53125 19.597656 C 35.5625 20.335938 35.367188 21.0625 34.96875 21.683594 C 34.570312 22.304688 33.988281 22.789062 33.300781 23.066406 C 32.777344 23.292969 32.21875 23.433594 31.652344 23.488281 L 31.652344 24.992188 L 30.042969 24.992188 L 30.042969 23.488281 C 29.699219 23.449219 29.363281 23.382812 29.03125 23.292969 C 28.433594 23.132812 27.871094 22.863281 27.371094 22.5 C 26.859375 22.117188 26.449219 21.617188 26.175781 21.035156 C 25.851562 20.332031 25.695312 19.5625 25.722656 18.789062 L 29.171875 18.789062 C 29.164062 19.121094 29.210938 19.453125 29.316406 19.769531 C 29.390625 20.003906 29.519531 20.21875 29.6875 20.394531 C 29.839844 20.546875 30.023438 20.664062 30.226562 20.730469 C 30.433594 20.804688 30.652344 20.839844 30.875 20.835938 C 31.121094 20.847656 31.363281 20.789062 31.582031 20.671875 C 31.753906 20.566406 31.890625 20.410156 31.972656 20.222656 C 32.058594 20.03125 32.101562 19.828125 32.101562 19.617188 Z M 31.886719 28.429688 L 31.59375 28.453125 C 31.277344 28.453125 30.960938 28.488281 30.636719 28.488281 C 27.886719 28.496094 25.21875 27.578125 23.054688 25.890625 C 20.894531 24.203125 19.371094 21.835938 18.730469 19.179688 C 18.089844 16.523438 18.367188 13.730469 19.523438 11.25 C 20.675781 8.769531 22.640625 6.75 25.089844 5.515625 L 25.34375 5.390625 C 26.949219 4.625 28.703125 4.214844 30.484375 4.195312 C 32.265625 4.171875 34.03125 4.539062 35.652344 5.265625 C 37.277344 5.992188 38.722656 7.0625 39.886719 8.402344 C 41.046875 9.746094 41.902344 11.320312 42.386719 13.023438 C 42.875 14.726562 42.976562 16.515625 42.695312 18.265625 C 42.410156 20.011719 41.746094 21.675781 40.75 23.140625 C 39.75 24.609375 38.441406 25.839844 36.914062 26.75 C 35.382812 27.65625 33.675781 28.226562 31.902344 28.410156 Z M 31.886719 28.429688 "/>
</g>
</svg>
