<svg width="33" height="34" viewBox="0 0 33 34" fill="none" xmlns="http://www.w3.org/2000/svg">
<path d="M31.4508 31.4639L30.8483 30.7724L27.9165 33.6931C27.7513 33.8549 27.529 33.9456 27.2973 33.9456C27.0657 33.9456 26.8433 33.8549 26.6782 33.6931L23.6908 30.8056L20.7645 33.6046C20.6041 33.7682 20.3863 33.8634 20.1568 33.8701C19.9274 33.8768 19.7043 33.7945 19.5346 33.6406L16.4278 30.7835L13.5598 33.7429C13.3934 33.9076 13.1683 34 12.9338 34C12.6992 34 12.4741 33.9076 12.3077 33.7429L9.35362 30.7835L6.29961 33.671C6.13289 33.8296 5.91036 33.9167 5.67985 33.9136C5.44934 33.9105 5.22925 33.8174 5.0669 33.6544L2.17947 30.7392L1.59643 31.4113C1.48645 31.5617 1.33144 31.6734 1.15369 31.7305C0.975943 31.7875 0.784609 31.787 0.607197 31.7289C0.429785 31.6708 0.275433 31.5582 0.166332 31.4072C0.0572312 31.2562 -0.000999004 31.0746 1.29701e-05 30.8886V0.879528C0.000745154 0.646487 0.0939985 0.423199 0.259413 0.258414C0.424828 0.0936279 0.648969 0.000729398 0.8829 0L32.1143 0C32.3487 -1.14739e-06 32.5736 0.0925748 32.7396 0.257439C32.9056 0.422304 32.9993 0.646009 33 0.879528V30.8886C32.9987 31.0147 32.9706 31.139 32.9175 31.2535C32.8643 31.3679 32.7874 31.4698 32.6918 31.5524C32.5154 31.7045 32.2856 31.7806 32.0529 31.764C31.8202 31.7475 31.6036 31.6395 31.4508 31.4639ZM7.31021 21.9882C7.15473 21.9882 7.06311 21.9605 6.94928 21.944L6.32182 21.8499L5.93313 21.7863C5.80726 21.7642 5.68233 21.7393 5.55831 21.7116C5.42505 21.6812 5.30289 21.6535 5.19461 21.6231L5.04746 21.5844V19.1671L5.73323 19.2224L6.23853 19.2528L6.76604 19.2777L7.30465 19.2943H7.82384H8.30692C8.45407 19.2943 8.58456 19.2943 8.69562 19.2943C8.79823 19.2844 8.90019 19.2687 9.00102 19.2473C9.07474 19.2313 9.14645 19.2072 9.2148 19.1754C9.26261 19.1527 9.30663 19.1229 9.34529 19.0869C9.3732 19.0584 9.39493 19.0245 9.40915 18.9873C9.42664 18.9356 9.43509 18.8814 9.43413 18.8269V18.6665C9.43886 18.6136 9.42985 18.5603 9.40797 18.5119C9.38609 18.4635 9.35208 18.4214 9.3092 18.3899C9.25847 18.3536 9.20223 18.3255 9.14261 18.3069C9.07595 18.2873 9.00666 18.278 8.93716 18.2793H8.22919C7.75028 18.287 7.27267 18.2274 6.81046 18.1022C6.42014 17.9963 6.0574 17.8076 5.74711 17.5491C5.44104 17.2835 5.21272 16.9404 5.08633 16.5562C4.93506 16.0929 4.86279 15.6077 4.87255 15.1207V14.6809C4.86452 14.2193 4.94461 13.7603 5.10854 13.3284C5.26091 12.9427 5.50933 12.602 5.8304 12.3383C6.04661 12.1533 6.28542 11.9962 6.54115 11.8709C6.78636 11.7587 7.04618 11.6814 7.31298 11.6413V10.5682H9.55074V11.597C9.8937 11.6277 10.2348 11.6766 10.5724 11.7436L10.7585 11.7768L11.2277 11.8653C11.3748 11.8958 11.5053 11.9262 11.6469 11.9594L11.7996 11.9953V14.4182L11.583 14.3988L10.9362 14.3518L10.2087 14.3131L9.48133 14.2882C9.2731 14.2882 9.05099 14.2882 8.82055 14.2882C8.69562 14.2882 8.58456 14.2882 8.47906 14.2882C8.3804 14.2951 8.28217 14.3071 8.18476 14.3241C8.11207 14.3366 8.0412 14.358 7.97376 14.3878C7.92328 14.4122 7.87729 14.4449 7.83772 14.4846C7.80334 14.5175 7.7776 14.5583 7.76276 14.6035C7.74227 14.6697 7.73289 14.7389 7.73499 14.8082V14.9437C7.73249 15.0173 7.74476 15.0906 7.77108 15.1594C7.79378 15.2122 7.82904 15.2587 7.87381 15.2949C7.93232 15.3389 7.9995 15.37 8.07093 15.3862C8.17994 15.4126 8.29194 15.4247 8.4041 15.4222H9.28699C9.59029 15.4209 9.89284 15.4524 10.1893 15.5162C10.4524 15.5711 10.7059 15.6643 10.9417 15.7928C11.3766 16.0312 11.7303 16.3932 11.9579 16.8327C12.0733 17.0581 12.16 17.2968 12.2161 17.5435C12.2725 17.7978 12.3004 18.0576 12.2994 18.318V18.7577C12.301 19.1465 12.2591 19.5343 12.1744 19.9138C12.1103 20.2265 11.9889 20.5246 11.8163 20.7934C11.661 21.0317 11.4623 21.239 11.2304 21.4046C10.9931 21.5727 10.7282 21.6981 10.4475 21.7752L10.3725 21.7974C10.1012 21.8828 9.82232 21.9421 9.53964 21.9744V23.136H7.31021V21.9882ZM23.5714 20.5721C23.7923 20.5721 24.0042 20.6595 24.1604 20.8151C24.3166 20.9707 24.4043 21.1818 24.4043 21.4019C24.4043 21.6219 24.3166 21.833 24.1604 21.9886C24.0042 22.1442 23.7923 22.2316 23.5714 22.2316H15.7837C15.5628 22.2316 15.3509 22.1442 15.1947 21.9886C15.0385 21.833 14.9508 21.6219 14.9508 21.4019C14.9508 21.1818 15.0385 20.9707 15.1947 20.8151C15.3509 20.6595 15.5628 20.5721 15.7837 20.5721H23.5714ZM27.9192 16.0417C28.1401 16.0417 28.352 16.1291 28.5082 16.2847C28.6644 16.4403 28.7521 16.6514 28.7521 16.8715C28.7521 17.0915 28.6644 17.3026 28.5082 17.4582C28.352 17.6138 28.1401 17.7012 27.9192 17.7012H15.7837C15.5628 17.7012 15.3509 17.6138 15.1947 17.4582C15.0385 17.3026 14.9508 17.0915 14.9508 16.8715C14.9508 16.6514 15.0385 16.4403 15.1947 16.2847C15.3509 16.1291 15.5628 16.0417 15.7837 16.0417H27.9192ZM27.947 11.5445C28.1679 11.5445 28.3798 11.6319 28.536 11.7875C28.6922 11.9431 28.7799 12.1542 28.7799 12.3742C28.7799 12.5943 28.6922 12.8054 28.536 12.961C28.3798 13.1166 28.1679 13.204 27.947 13.204H15.7837C15.5628 13.204 15.3509 13.1166 15.1947 12.961C15.0385 12.8054 14.9508 12.5943 14.9508 12.3742C14.9508 12.1542 15.0385 11.9431 15.1947 11.7875C15.3509 11.6319 15.5628 11.5445 15.7837 11.5445H27.947ZM26.6532 4.33679C26.993 4.33672 27.3223 4.45402 27.585 4.6687C27.8477 4.88339 28.0276 5.18218 28.094 5.51417C28.1603 5.84615 28.1091 6.19079 27.949 6.48936C27.7888 6.78792 27.5298 7.02194 27.2158 7.15154C26.9019 7.28114 26.5526 7.2983 26.2275 7.2001C25.9023 7.1019 25.6213 6.89441 25.4325 6.61298C25.2437 6.33156 25.1586 5.99362 25.1919 5.65674C25.2251 5.31986 25.3746 5.00489 25.6148 4.76549C25.7507 4.629 25.9125 4.52081 26.0908 4.44721C26.2691 4.37361 26.4602 4.33608 26.6532 4.33679ZM19.8872 4.33679C20.2255 4.33725 20.5532 4.45448 20.8145 4.66854C21.0758 4.8826 21.2546 5.18025 21.3204 5.51084C21.3862 5.84143 21.335 6.18452 21.1755 6.48172C21.0159 6.77892 20.7579 7.01186 20.4454 7.1409C20.1329 7.26993 19.7851 7.28709 19.4613 7.18944C19.1375 7.09179 18.8577 6.88538 18.6694 6.60533C18.4812 6.32528 18.3962 5.98891 18.4289 5.65346C18.4616 5.31801 18.61 5.00422 18.8488 4.76549C18.985 4.62938 19.1468 4.52142 19.325 4.44785C19.5032 4.37428 19.6943 4.33653 19.8872 4.33679ZM13.1239 4.33679C13.4637 4.33672 13.793 4.45402 14.0558 4.6687C14.3185 4.88339 14.4983 5.18218 14.5647 5.51417C14.631 5.84615 14.5798 6.19079 14.4197 6.48936C14.2596 6.78792 14.0005 7.02194 13.6866 7.15154C13.3727 7.28114 13.0234 7.2983 12.6982 7.2001C12.373 7.1019 12.0921 6.89441 11.9032 6.61298C11.7144 6.33156 11.6294 5.99362 11.6626 5.65674C11.6959 5.31986 11.8453 5.00489 12.0856 4.76549C12.2215 4.629 12.3832 4.52081 12.5615 4.44721C12.7398 4.37361 12.931 4.33608 13.1239 4.33679ZM6.35791 4.33679C6.69622 4.33725 7.02393 4.45448 7.28524 4.66854C7.54655 4.8826 7.72533 5.18025 7.79114 5.51084C7.85695 5.84143 7.80573 6.18452 7.64619 6.48172C7.48665 6.77892 7.22866 7.01186 6.91612 7.1409C6.60359 7.26993 6.25582 7.28709 5.93202 7.18944C5.60821 7.09179 5.32838 6.88538 5.14016 6.60533C4.95193 6.32528 4.86694 5.98891 4.89964 5.65346C4.93235 5.31801 5.08074 5.00422 5.31955 4.76549C5.45571 4.62938 5.61755 4.52142 5.79576 4.44785C5.97396 4.37428 6.16501 4.33653 6.35791 4.33679ZM31.237 28.6759V1.76182H1.76856V28.6538C1.92251 28.583 2.09365 28.5579 2.26154 28.5815C2.42942 28.605 2.58695 28.6762 2.71531 28.7866L5.71934 31.8068L8.77336 28.9193C8.9404 28.7614 9.1628 28.6747 9.3931 28.6778C9.6234 28.6809 9.84336 28.7735 10.0061 28.9359L12.9379 31.8539L15.7726 28.9442C15.9333 28.781 16.1514 28.6863 16.3808 28.6801C16.6103 28.6739 16.8332 28.7567 17.0025 28.911L20.1315 31.7875L23.0939 28.9525C23.2588 28.7924 23.48 28.7027 23.7103 28.7027C23.9405 28.7027 24.1617 28.7924 24.3266 28.9525L27.2918 31.8262L30.2625 28.864C30.3865 28.7405 30.5445 28.6564 30.7165 28.6224C30.8885 28.5885 31.0668 28.6061 31.2287 28.6732L31.237 28.6759Z" fill="#3ba03e"/>
</svg>
