<?xml version="1.0" encoding="UTF-8"?>
<svg xmlns="http://www.w3.org/2000/svg" xmlns:xlink="http://www.w3.org/1999/xlink" width="21px" height="px" viewBox="0 0 21 21" version="1.1">
<g id="surface1">
<path style=" stroke:none;fill-rule:nonzero;fill:rgb(23.137255%,62.745098%,24.313725%);fill-opacity:1;" d="M 13.375 13.363281 C 12.074219 14.378906 11.011719 15.628906 9.941406 16.867188 C 9.480469 16.382812 9.0625 15.867188 8.796875 15.242188 C 8.492188 14.535156 7.332031 15.566406 7.609375 16.203125 C 7.984375 17.074219 8.652344 17.777344 9.308594 18.441406 C 9.578125 18.714844 10.039062 18.40625 10.222656 18.195312 C 11.402344 16.859375 12.5 15.453125 13.910156 14.351562 C 14.589844 13.824219 14.183594 12.734375 13.375 13.363281 Z M 13.375 13.363281 "/>
<path style=" stroke:none;fill-rule:nonzero;fill:rgb(23.137255%,62.745098%,24.313725%);fill-opacity:1;" d="M 17.117188 1.507812 L 13.871094 1.507812 C 13.640625 1.253906 13.3125 1.09375 12.949219 1.09375 L 11.695312 1.09375 L 11.695312 0.882812 C 11.695312 0.421875 11.082031 0 10.5 0 C 9.917969 0 9.304688 0.421875 9.304688 0.882812 L 9.304688 1.09375 L 8.050781 1.09375 C 7.6875 1.09375 7.359375 1.253906 7.128906 1.507812 L 3.878906 1.507812 C 3.535156 1.507812 3.257812 1.785156 3.257812 2.128906 L 3.257812 20.378906 C 3.257812 20.71875 3.535156 21 3.878906 21 L 17.117188 21 C 17.460938 21 17.742188 20.722656 17.742188 20.378906 L 17.742188 2.128906 C 17.742188 1.785156 17.460938 1.507812 17.117188 1.507812 Z M 16.496094 19.753906 L 4.5 19.753906 L 4.5 2.75 L 6.875 2.75 C 7.042969 3.242188 7.503906 3.597656 8.050781 3.597656 L 12.949219 3.597656 C 13.496094 3.597656 13.957031 3.242188 14.125 2.75 L 16.496094 2.75 Z M 16.496094 19.753906 "/>
<path style=" stroke:none;fill-rule:nonzero;fill:rgb(23.137255%,62.745098%,24.313725%);fill-opacity:1;" d="M 5.664062 4.886719 L 15.335938 4.886719 L 15.335938 5.851562 L 5.664062 5.851562 Z M 5.664062 4.886719 "/>
<path style=" stroke:none;fill-rule:nonzero;fill:rgb(23.137255%,62.745098%,24.313725%);fill-opacity:1;" d="M 5.664062 7.015625 L 15.335938 7.015625 L 15.335938 7.980469 L 5.664062 7.980469 Z M 5.664062 7.015625 "/>
<path style=" stroke:none;fill-rule:nonzero;fill:rgb(23.137255%,62.745098%,24.313725%);fill-opacity:1;" d="M 5.664062 9.140625 L 15.335938 9.140625 L 15.335938 10.109375 L 5.664062 10.109375 Z M 5.664062 9.140625 "/>
<path style=" stroke:none;fill-rule:nonzero;fill:rgb(23.137255%,62.745098%,24.313725%);fill-opacity:1;" d="M 5.664062 11.269531 L 15.335938 11.269531 L 15.335938 12.238281 L 5.664062 12.238281 Z M 5.664062 11.269531 "/>
</g>
</svg>
