<svg width="30" height="33" viewBox="0 0 30 33" fill="none" xmlns="http://www.w3.org/2000/svg">
<path fill-rule="evenodd" clip-rule="evenodd" d="M5.43429 23.107H2.71715C1.99651 23.107 1.3054 22.8239 0.795833 22.32C0.28627 21.8161 0 21.1327 0 20.4201L0 2.68686C0.00589064 1.98046 0.292879 1.30477 0.798841 0.806058V0.806058C1.0492 0.553461 1.34753 0.35223 1.67672 0.213907C2.00591 0.0755839 2.35948 0.00289163 2.71715 0L27.2829 0C28.0024 0.00353114 28.6914 0.287744 29.2002 0.790864C29.709 1.29398 29.9964 1.97535 30 2.68686V20.4201C29.9978 20.7747 29.9246 21.1254 29.7847 21.4518C29.6448 21.7783 29.4409 22.0742 29.1849 22.3224V22.3224C28.9342 22.5753 28.6354 22.7768 28.3057 22.9151C27.976 23.0534 27.622 23.1259 27.2638 23.1285H24.5467C24.5535 22.2617 24.4101 21.4002 24.1228 20.5813H26.4786C26.7399 20.5806 26.9904 20.4776 27.1752 20.2949C27.36 20.1121 27.4642 19.8645 27.4649 19.606V12.4751C27.4642 12.2166 27.36 11.969 27.1752 11.7862C26.9904 11.6035 26.7399 11.5005 26.4786 11.4998H3.53229C3.27092 11.5005 3.02046 11.6035 2.83564 11.7862C2.65083 11.969 2.54668 12.2166 2.54596 12.4751V19.5953C2.54668 19.8537 2.65083 20.1014 2.83564 20.2841C3.02046 20.4669 3.27092 20.5699 3.53229 20.5706H5.93968C5.59915 21.3735 5.42721 22.2364 5.43429 23.107V23.107ZM21.6421 21.7636V33H8.37696V21.7797H21.6366L21.6421 21.7636ZM10.0263 21.7636V29.6522C10.4368 29.6529 10.8303 29.8145 11.1206 30.1015C11.4109 30.3886 11.5743 30.7777 11.575 31.1837H18.4956C18.4956 30.778 18.6584 30.3888 18.9483 30.1017C19.2381 29.8146 19.6314 29.6529 20.0417 29.6522V21.7797H17.3897C17.7579 22.2264 17.9905 22.7672 18.0604 23.3393C18.1303 23.9115 18.0346 24.4915 17.7846 25.012C17.5345 25.5326 17.1403 25.9723 16.6476 26.2803C16.155 26.5882 15.5842 26.7516 15.0014 26.7516C14.4186 26.7516 13.8477 26.5882 13.3551 26.2803C12.8624 25.9723 12.4682 25.5326 12.2182 25.012C11.9681 24.4915 11.8725 23.9115 11.9423 23.3393C12.0122 22.7672 12.2448 22.2264 12.613 21.7797L10.0263 21.7636ZM8.78725 17.2819H10.961C11.0482 17.2819 11.1318 17.3161 11.1934 17.3771C11.2551 17.4381 11.2897 17.5208 11.2897 17.607V19.0767C11.2897 19.1629 11.2551 19.2456 11.1934 19.3066C11.1318 19.3676 11.0482 19.4018 10.961 19.4018H8.78725C8.70005 19.4018 8.61643 19.3676 8.55477 19.3066C8.49311 19.2456 8.45847 19.1629 8.45847 19.0767V17.607C8.45847 17.5208 8.49311 17.4381 8.55477 17.3771C8.61643 17.3161 8.70005 17.2819 8.78725 17.2819V17.2819ZM13.9254 17.2819H16.1154C16.2024 17.2826 16.2856 17.3171 16.3471 17.3779C16.4086 17.4387 16.4435 17.521 16.4442 17.607V19.0767C16.4442 19.1629 16.4095 19.2456 16.3479 19.3066C16.2862 19.3676 16.2026 19.4018 16.1154 19.4018H13.9254C13.8813 19.4032 13.8374 19.3959 13.7962 19.3802C13.7551 19.3645 13.7175 19.3408 13.6858 19.3105C13.6541 19.2801 13.6289 19.2438 13.6118 19.2036C13.5946 19.1635 13.5857 19.1203 13.5857 19.0767V17.607C13.5864 17.521 13.6213 17.4387 13.6828 17.3779C13.7443 17.3171 13.8275 17.2826 13.9145 17.2819H13.9254ZM19.0662 17.2819H21.2399C21.3271 17.2819 21.4107 17.3161 21.4724 17.3771C21.5341 17.4381 21.5687 17.5208 21.5687 17.607V19.0767C21.5687 19.1629 21.5341 19.2456 21.4724 19.3066C21.4107 19.3676 21.3271 19.4018 21.2399 19.4018H19.0662C18.9809 19.399 18.9 19.3635 18.8407 19.3029C18.7814 19.2422 18.7483 19.1611 18.7483 19.0767V17.607C18.7483 17.5208 18.7829 17.4381 18.8446 17.3771C18.9063 17.3161 18.9899 17.2819 19.0771 17.2819H19.0662ZM8.78725 13.2301H10.961C11.0477 13.2301 11.1309 13.264 11.1925 13.3244C11.2541 13.3848 11.289 13.4668 11.2897 13.5525V15.0195C11.2897 15.1058 11.2551 15.1885 11.1934 15.2494C11.1318 15.3104 11.0482 15.3447 10.961 15.3447H8.78725C8.70005 15.3447 8.61643 15.3104 8.55477 15.2494C8.49311 15.1885 8.45847 15.1058 8.45847 15.0195V13.5525C8.45919 13.4668 8.49414 13.3848 8.55572 13.3244C8.6173 13.264 8.70052 13.2301 8.78725 13.2301V13.2301ZM13.9254 13.2301H16.1154C16.2021 13.2301 16.2853 13.264 16.3469 13.3244C16.4085 13.3848 16.4434 13.4668 16.4442 13.5525V15.0195C16.4435 15.1055 16.4086 15.1878 16.3471 15.2487C16.2856 15.3095 16.2024 15.3439 16.1154 15.3447H13.9254C13.8814 15.3457 13.8376 15.3381 13.7966 15.3223C13.7557 15.3065 13.7183 15.2827 13.6866 15.2525C13.655 15.2222 13.6298 15.186 13.6125 15.146C13.5952 15.1061 13.5861 15.063 13.5857 15.0195V13.5525C13.5864 13.4668 13.6214 13.3848 13.683 13.3244C13.7446 13.264 13.8278 13.2301 13.9145 13.2301H13.9254ZM19.0662 13.2301H21.2399C21.3267 13.2301 21.4099 13.264 21.4714 13.3244C21.533 13.3848 21.568 13.4668 21.5687 13.5525V15.0195C21.5687 15.1058 21.5341 15.1885 21.4724 15.2494C21.4107 15.3104 21.3271 15.3447 21.2399 15.3447H19.0662C18.9809 15.3419 18.9 15.3064 18.8407 15.2457C18.7814 15.185 18.7483 15.1039 18.7483 15.0195V13.5525C18.749 13.4668 18.784 13.3848 18.8456 13.3244C18.9071 13.264 18.9903 13.2301 19.0771 13.2301H19.0662ZM4.27407 9.54104L5.85001 2.49072H9.58609L11.1919 9.54104H8.69486L8.49108 8.73498H6.86079L6.68961 9.54104H4.27407ZM7.60801 4.40645L7.20315 6.86761H8.2574L7.8607 4.40645H7.60801ZM11.0887 4.47899V2.49072H16.3953V4.47899H15.0122V9.54104H12.5451V4.47899H11.0887ZM17.281 9.54104V2.49072H20.9519L21.4953 5.17758L21.9518 2.49072H25.7286V9.54104H23.2723V5.91109H23.1555L22.536 9.46849H20.4737L19.865 5.91109H19.7482V9.54104H17.281Z" fill="#3ba03e"/>
</svg>
